# AST/ASF file generated using VICON BodyLanguage
# -----------------------------------------------
:version 1.10
:name VICON
:units
  mass 1.0
  length 0.45
  angle deg
:documentation
   .ast/.asf automatically generated from VICON data using
   VICON BodyBuilder and BodyLanguage model FoxedUp or BRILLIANT.MOD
:root
   order TX TY TZ RX RY RZ
   axis XYZ
   position 0 0 0  
   orientation 0 0 0 
:bonedata
  begin
     id 1 
     name lhipjoint
     direction 0.690799 -0.707083 0.151096 
     length 2.54797 
     axis 0 0 0  XYZ
  end
  begin
     id 2 
     name lfemur
     direction 0.34202 -0.939693 0  
     length 7.21646  
     axis 0 0 20  XYZ
    dof rx ry rz
    limits (-160.0 20.0)
           (-70.0 70.0)
           (-60.0 70.0)
  end
  begin
     id 3 
     name ltibia
     direction 0.34202 -0.939693 0   
     length 8.16759   
     axis 0 0 20   XYZ
    dof rx
    limits (-10.0 170.0)
  end
  begin
     id 4 
     name lfoot
     direction 0.0487203 -0.133858 0.989802   
     length 1.93375   
     axis -90 7.62852e-016 20   XYZ
    dof rx rz
    limits (-45.0 90.0)
           (-70.0 20.0)
  end
  begin
     id 5 
     name ltoes
     direction 1.53453e-011 -4.21783e-011 1   
     length 0.979747   
     axis -90 7.62852e-016 20   XYZ
    dof rx
    limits (-90.0 20.0)
  end
  begin
     id 6 
     name rhipjoint
     direction -0.694693 -0.703425 0.150315   
     length 2.56122  
     axis 0 0 0  XYZ 
  end
  begin
     id 7 
     name rfemur
     direction -0.34202 -0.939693 0   
     length 7.36786   
     axis 0 0 -20   XYZ
    dof rx ry rz
    limits (-160.0 20.0)
           (-70.0 70.0)
           (-70.0 60.0)
  end
  begin
     id 8 
     name rtibia
     direction -0.34202 -0.939693 0   
     length 8.07288   
     axis 0 0 -20   XYZ
    dof rx
    limits (-10.0 170.0)
 end
 begin
     id 9 
     name rfoot
     direction -0.0428397 -0.117701 0.992125   
     length 1.88295  
     axis -90 -7.62852e-016 -20   XYZ
    dof rx rz
    limits (-45.0 90.0)
           (-20.0 70.0)
  end
  begin
     id 10 
     name rtoes
     direction -1.53456e-011 -4.2187e-011 1   
     length 0.955578   
     axis -90 -7.62852e-016 -20   XYZ
    dof rx
    limits (-90.0 20.0)
  end
  begin
     id 11 
     name lowerback
     direction 0.0288145 0.999398 -0.0193241   
     length 1.92149   
     axis 0 0 0   XYZ
    dof rx ry rz
    limits (-20.0 45.0)
           (-30.0 30.0)
           (-30.0 30.0)
  end
  begin
     id 12 
     name upperback
     direction 0.0233784 0.998099 0.0570278   
     length 1.90435   
     axis 0 0 0   XYZ
    dof rx ry rz
    limits (-20.0 45.0)
           (-30.0 30.0)
           (-30.0 30.0)
  end
  begin
     id 13 
     name thorax
     direction 0.0096694 0.997833 0.0650817   
     length 1.9111   
     axis 0 0 0   XYZ
    dof rx ry rz
    limits (-20.0 45.0)
           (-30.0 30.0)
           (-30.0 30.0)
  end
  begin
     id 14 
     name lowerneck
     direction 0.00516803 0.999916 0.0118722   
     length 1.74664   
     axis 0 0 0   XYZ
    dof rx ry rz
    limits (-20.0 45.0)
           (-30.0 30.0)
           (-30.0 30.0)
  end
  begin
     id 15 
     name upperneck
     direction -0.0510851 0.996117 -0.071696   
     length 1.68498   
     axis 0 0 0   XYZ
    dof rx ry rz
    limits (-20.0 45.0)
           (-30.0 30.0)
           (-30.0 30.0)
  end
  begin
     id 16
     name head
     direction -0.019188 0.999436 -0.0275702  
     length 1.83483  
     axis 0 0 0   XYZ
    dof rx ry rz
    limits (-20.0 45.0)
           (-30.0 30.0)
           (-30.0 30.0)
  end
  begin
     id 17 
     name lclavicle
     direction 0.967006 0.248456 -0.0562957  
     length 3.39395  
     axis 0 0 0   XYZ
    dof ry rz
    limits (-20.0 10.0)
           (0.0 20.0)
  end
  begin
     id 18 
     name lhumerus
     direction 1 -4.48962e-011 -5.62711e-019   
     length 5.24318   
     axis 180 -30 -90   XYZ
    dof rx ry rz
    limits (-60.0 90.0)
           (-90.0 90.0)
           (-90.0 90.0)
  end
  begin
     id 19
     name lradius
     direction 1 -4.48966e-011 7.90625e-027   
     length 2.98999   
     axis 180 -30 -90   XYZ
    dof rx
    limits (-10.0 170.0)
  end
  begin
     id 20
     name lwrist
     direction 1 -4.48959e-011 1.61068e-026   
     length 1.49499   
     axis -9.31229e-015 90 90   XYZ
    dof ry
    limits (-180.0 0.0)
 end
  begin
     id 21 
     name lhand
     direction 1 -4.49017e-011 3.22136e-026   
     length 0.726745   
     axis -2.0555e-014 90 90   XYZ
    dof rx rz
    limits (-90.0 90.0)
           (-45.0 45.0)
  end
  begin
     id 22 
     name lfingers
     direction 1 -4.4898e-011 6.44272e-026   
     length 0.58592   
     axis -4.11101e-014 90 90   XYZ
    dof rx
    limits (0.0 90.0)
  end
  begin
     id 23
     name lthumb
     direction 0.707107 -6.34922e-011 0.707107   
     length 0.841268   
     axis -90 45 2.85299e-015   XYZ
    dof rx rz
    limits (-45.0 45.0)
           (-45.0 45.0)
  end
  begin
     id 24 
     name rclavicle
     direction -0.972232 0.230238 0.0419005   
     length 3.40416  
     axis 0 0 0   XYZ 
    dof ry rz
    limits (-10.0 20.0)
           (-20.0 0.0)
  end
  begin
     id 25 
     name rhumerus
     direction -1 -4.48976e-011 2.48487e-027  
     length 5.37045   
     axis 180 30 90   XYZ
    dof rx ry rz
    limits (-90.0 60.0)
           (-90.0 90.0)
           (-90.0 90.0)
  end
  begin
     id 26 
     name rradius
     direction -1 -4.48942e-011 7.87951e-027   
     length 2.92792   
     axis 180 30 90   XYZ
    dof rx
    limits (-10.0 170.0)
  end
  begin
     id 27 
     name rwrist
     direction -1 -4.48969e-011 1.61068e-026   
     length 1.46396   
     axis -9.31229e-015 -90 -90   XYZ
    dof ry
    limits (-180.0 0.0)
  end
  begin
     id 28
     name rhand
     direction -1 -4.49043e-011 3.22136e-026   
     length 0.784497   
     axis -2.0555e-014 -90 -90   XYZ
    dof rx rz
    limits (-90.0 90.0)
           (-45.0 45.0)
  end
  begin
     id 29
     name rfingers
     direction -1 -4.48823e-011 6.44272e-026   
     length 0.632482   
     axis -4.11101e-014 -90 -90   XYZ
    dof rx
    limits (0.0 90.0)
  end
  begin
     id 30
     name rthumb
     direction -0.707107 -6.34923e-011 0.707107   
     length 0.908121   
     axis -90 -45 -2.85299e-015   XYZ
    dof rx rz
    limits (-45.0 45.0)
           (-45.0 45.0)
  end
:hierarchy
  begin
    root lhipjoint rhipjoint lowerback
    lhipjoint lfemur
    lfemur ltibia
    ltibia lfoot
    lfoot ltoes
    rhipjoint rfemur
    rfemur rtibia
    rtibia rfoot
    rfoot rtoes
    lowerback upperback
    upperback thorax
    thorax lowerneck lclavicle rclavicle
    lowerneck upperneck
    upperneck head
    lclavicle lhumerus
    lhumerus lradius
    lradius lwrist
    lwrist lhand lthumb
    lhand lfingers
    rclavicle rhumerus
    rhumerus rradius
    rradius rwrist
    rwrist rhand rthumb
    rhand rfingers
  end

#!OML:ASF F:\VICON\USERDATA\INSTALL\rory3\rory3.ASF
:FULLY-SPECIFIED
:DEGREES
1747
root 1.0441 18.1764 0.248877 34.0411 7.59423 4.31562
lowerback 17.4838 0.0863354 9.7162
upperback -3.73682 3.57716 8.78119
thorax -14.2873 1.34034 3.4605
lowerneck 0.515929 -3.30508 5.37025
upperneck -16.4879 -7.9991 -23.2689
head -6.13713 -2.88204 -8.11443
rclavicle 1.90833e-014 -2.54444e-014
rhumerus -28.5886 4.20706 -80.3308
rradius 137.086
rwrist 35.8952
rhand 5.66107 3.06599
rfingers 7.12502
rthumb 31.0003 -24.3354
lclavicle 1.90833e-014 -2.54444e-014
lhumerus -39.2342 -8.60457 94.3992
lradius 124.697
lwrist -25.087
lhand -14.6775 21.123
lfingers 7.12502
lthumb 11.4758 50.7889
rfemur -48.5198 39.0973 -18.9083
rtibia 15.237
rfoot -72.1612 -20.4238
rtoes 56.4347
lfemur -38.2976 -17.5266 -13.9613
ltibia 6.63194
lfoot 5.11726 13.9821
ltoes -16.4945
1748
root 1.0423 18.1748 0.233499 34.2714 7.37577 4.21687
lowerback 17.5431 0.178367 9.73786
upperback -3.67758 3.71495 8.8466
thorax -14.2565 1.40608 3.48081
lowerneck 0.60832 -3.33352 5.28569
upperneck -16.6588 -8.06411 -23.1497
head -6.2114 -2.89934 -8.05613
rclavicle 3.65764e-014 -3.81667e-014
rhumerus -28.5779 4.21414 -80.3903
rradius 137.114
rwrist 35.7807
rhand 5.77328 2.98132
rfingers 7.12502
rthumb 31.1073 -24.3997
lclavicle 3.65764e-014 -3.81667e-014
lhumerus -39.4613 -8.50897 94.5684
lradius 124.573
lwrist -25.0223
lhand -14.8781 21.2841
lfingers 7.12502
lthumb 11.2823 50.9607
rfemur -49.3998 39.6989 -19.9901
rtibia 15.1081
rfoot -73.0501 -20.0739
rtoes 56.6263
lfemur -38.5208 -17.3537 -13.8599
ltibia 6.51397
lfoot 5.17257 14.0359
ltoes -16.1521
1749
root 1.04226 18.1722 0.22251 34.3775 7.29532 4.29792
lowerback 17.6783 0.175036 9.79683
upperback -3.62154 3.73454 8.82456
thorax -14.2661 1.40814 3.41447
lowerneck 0.760854 -3.35753 5.33678
upperneck -16.9042 -8.13208 -23.0455
head -6.32546 -2.91753 -8.03053
rclavicle -3.97569e-014 4.13472e-014
rhumerus -28.5702 4.14804 -80.4984
rradius 137.125
rwrist 35.695
rhand 5.87948 2.99232
rfingers 7.12502
rthumb 31.2085 -24.3692
lclavicle -3.97569e-014 4.13472e-014
lhumerus -39.6729 -8.41947 94.6572
lradius 124.351
lwrist -25.0113
lhand -14.9396 21.0369
lfingers 7.12502
lthumb 11.223 50.7167
rfemur -49.9959 40.3496 -21.0651
rtibia 14.9748
rfoot -74.089 -19.6552
rtoes 56.8342
lfemur -38.6589 -17.4133 -13.872
ltibia 6.48374
lfoot 5.205 14.1169
ltoes -16.0015
1750
root 1.04093 18.1694 0.211455 34.5073 7.18515 4.38276
lowerback 17.795 0.176163 9.80938
upperback -3.58631 3.74382 8.76409
thorax -14.2878 1.40657 3.33327
lowerneck 0.753828 -3.34477 5.43348
upperneck -16.9926 -8.10884 -22.9479
head -6.34664 -2.91384 -8.01807
rclavicle -6.36111e-015 -8.90555e-014
rhumerus -28.6185 3.92362 -80.7328
rradius 137.059
rwrist 35.7027
rhand 6.00808 3.19886
rfingers 7.12502
rthumb 31.331 -24.139
lclavicle -6.36111e-015 -8.90555e-014
lhumerus -39.7459 -8.35276 94.7172
lradius 124.273
lwrist -24.9974
lhand -14.8791 20.9912
lfingers 7.12502
lthumb 11.2813 50.6679
rfemur -50.5313 40.7264 -21.9034
rtibia 14.9509
rfoot -74.6996 -19.5229
rtoes 56.9423
lfemur -38.7124 -17.4484 -13.8975
ltibia 6.24714
lfoot 5.39791 14.1314
ltoes -16.2497
1751
root 1.03815 18.1681 0.202462 34.6361 7.12368 4.46462
lowerback 17.8394 0.175234 9.77105
upperback -3.56304 3.73664 8.75801
thorax -14.288 1.40618 3.34857
lowerneck 0.734973 -3.32866 5.44735
upperneck -17.0569 -8.08529 -22.8744
head -6.35662 -2.9054 -7.99827
rclavicle 2.38542e-014 -6.36111e-015
rhumerus -28.734 3.55609 -80.9577
rradius 136.954
rwrist 35.77
rhand 6.14204 3.60696
rfingers 7.12502
rthumb 31.4587 -23.7061
lclavicle 2.38542e-014 -6.36111e-015
lhumerus -39.7131 -8.26862 94.8529
lradius 124.269
lwrist -25.008
lhand -14.7251 20.8484
lfingers 7.12502
lthumb 11.4299 50.5169
rfemur -50.8931 40.8816 -22.4284
rtibia 14.9766
rfoot -75.0068 -19.665
rtoes 56.9213
lfemur -38.6897 -17.5197 -13.8888
ltibia 5.90839
lfoot 5.58434 14.1694
ltoes -16.2237
1752
root 1.03372 18.1666 0.194768 34.8254 7.02687 4.50994
lowerback 17.7569 0.212173 9.68368
upperback -3.57264 3.75179 8.74844
thorax -14.2524 1.42073 3.38102
lowerneck 0.79135 -3.32447 5.38303
upperneck -17.1403 -8.0681 -22.6919
head -6.38113 -2.89543 -7.92296
rclavicle 1.74931e-014 6.99722e-014
rhumerus -28.8464 3.34328 -81.0738
rradius 136.892
rwrist 35.8264
rhand 6.16407 3.78249
rfingers 7.12502
rthumb 31.4797 -23.5264
lclavicle 1.74931e-014 6.99722e-014
lhumerus -39.7742 -8.22921 95.0071
lradius 124.129
lwrist -25.0006
lhand -14.6518 20.4786
lfingers 7.12502
lthumb 11.5006 50.1431
rfemur -51.1746 40.7638 -22.7
rtibia 14.9726
rfoot -74.9529 -20.0284
rtoes 56.7917
lfemur -38.7653 -17.5364 -13.8534
ltibia 5.64675
lfoot 5.7865 14.1822
ltoes -16.4741
1753
root 1.02816 18.1667 0.191327 34.9326 7.0607 4.47324
lowerback 17.701 0.19524 9.72702
upperback -3.59411 3.73345 8.7518
thorax -14.2426 1.409 3.36715
lowerneck 0.844948 -3.28574 5.35287
upperneck -17.2157 -8.00461 -22.5589
head -6.39816 -2.86262 -7.87529
rclavicle 4.13472e-014 -1.04958e-013
rhumerus -28.9519 3.3109 -81.1292
rradius 136.897
rwrist 35.9035
rhand 6.12455 3.76751
rfingers 7.12502
rthumb 31.442 -23.5488
lclavicle 4.13472e-014 -1.04958e-013
lhumerus -39.8699 -8.28108 95.1177
lradius 123.886
lwrist -24.976
lhand -14.6563 20.5495
lfingers 7.12502
lthumb 11.4963 50.2143
rfemur -51.5275 41.0029 -23.1103
rtibia 14.9267
rfoot -75.3724 -19.9084
rtoes 56.925
lfemur -38.8458 -17.6081 -13.6812
ltibia 5.52385
lfoot 5.91112 14.2132
ltoes -16.7849
1754
root 1.02091 18.1688 0.191539 34.9536 7.16189 4.41412
lowerback 17.6583 0.146256 9.80017
upperback -3.61782 3.68188 8.7556
thorax -14.2425 1.37942 3.3474
lowerneck 0.822971 -3.23699 5.3791
upperneck -17.1707 -7.91131 -22.502
head -6.36297 -2.82632 -7.86418
rclavicle -6.52014e-014 1.90833e-014
rhumerus -29.064 3.25856 -81.1786
rradius 136.917
rwrist 35.9034
rhand 6.23094 3.70768
rfingers 7.12502
rthumb 31.5433 -23.5888
lclavicle -6.52014e-014 1.90833e-014
lhumerus -39.917 -8.34955 95.2054
lradius 123.709
lwrist -24.9722
lhand -14.5753 20.6156
lfingers 7.12502
lthumb 11.5744 50.276
rfemur -51.6957 41.2512 -23.319
rtibia 14.8406
rfoot -75.7817 -19.6673
rtoes 57.0753
lfemur -38.9374 -17.718 -13.4608
ltibia 5.57983
lfoot 5.82622 14.3347
ltoes -16.5673
1755
root 1.01 18.1706 0.191988 34.9466 7.15008 4.34666
lowerback 17.6292 0.133862 9.7428
upperback -3.63483 3.64389 8.71599
thorax -14.2444 1.36432 3.3451
lowerneck 0.694447 -3.19154 5.3925
upperneck -17.0333 -7.78718 -22.3511
head -6.26977 -2.79196 -7.81614
rclavicle 1.90833e-014 -9.54166e-015
rhumerus -29.0931 3.1639 -81.2618
rradius 136.851
rwrist 35.817
rhand 6.40623 3.73966
rfingers 7.12502
rthumb 31.7103 -23.524
lclavicle 1.90833e-014 -9.54166e-015
lhumerus -39.8649 -8.41036 95.2245
lradius 123.729
lwrist -24.9836
lhand -14.3353 20.7307
lfingers 7.12502
lthumb 11.8058 50.3779
rfemur -51.6265 41.1813 -23.1321
rtibia 14.737
rfoot -75.5344 -19.646
rtoes 57.1575
lfemur -39.0349 -17.735 -13.3112
ltibia 5.76056
lfoot 5.72234 14.4755
ltoes -16.4807
